<svg width="24" height="24" viewBox="0 0 24 24" fill="none" xmlns="http://www.w3.org/2000/svg">
  <path d="M12.121 4.00098C15.6046 4.00098 18.2876 7.07467 17.8169 10.5263C17.6712 11.595 17.2278 12.6012 16.5372 13.4298L11.998 18.8769L7.45875 13.4298C6.76825 12.6012 6.32479 11.595 6.17905 10.5263C5.70837 7.07467 8.39138 4.00098 11.875 4.00098H12.121ZM11.875 2.00098C7.17941 2.00098 3.56296 6.14404 4.19739 10.7965C4.39383 12.2371 4.99157 13.5933 5.92231 14.7101L11.6666 21.6033C11.8391 21.8102 12.1569 21.8102 12.3294 21.6033L18.0737 14.7101C19.0044 13.5933 19.6022 12.2371 19.7986 10.7965C20.433 6.14404 16.8166 2.00098 12.121 2.00098H11.875Z" fill="#A2A7AA"/>
  <path d="M10.498 9.74403C10.498 8.91561 11.1696 8.24403 11.998 8.24403C12.8264 8.24403 13.498 8.91561 13.498 9.74403C13.498 10.5725 12.8264 11.244 11.998 11.244C11.1696 11.244 10.498 10.5725 10.498 9.74403Z" fill="#A2A7AA"/>
</svg>
